<svg width="30" height="36" viewBox="0 0 30 36" fill="none" xmlns="http://www.w3.org/2000/svg">
<path fill-rule="evenodd" clip-rule="evenodd" d="M22.6104 4.15165V6.40624H25.6346H25.6371V6.41207C26.5923 6.41499 27.4581 6.86999 28.0833 7.6079C28.7035 8.33999 29.0905 9.35207 29.093 10.4721H29.098V10.4779V31.8483V31.8512H29.093C29.0905 32.9712 28.7035 33.9892 28.0758 34.7271C27.4531 35.4562 26.5923 35.9112 25.6396 35.9142V35.92H25.6346H10.3274H10.3249V35.9142C9.37225 35.9112 8.50393 35.4562 7.87874 34.7183C7.25851 33.9862 6.87149 32.9742 6.86901 31.8542H6.86405V31.8483V27.0621H3.83982H3.83734V27.0562C2.88467 27.0533 2.01635 26.5983 1.39116 25.8604C0.77093 25.1283 0.383908 24.1162 0.381427 22.9962H0.376465V22.9904V4.15165V4.14874H0.381427C0.383908 3.02582 0.773411 2.0079 1.3986 1.2729C2.02131 0.543737 2.88218 0.0887366 3.83485 0.0858199V0.0799866H3.83982H19.147H19.1495V0.0858199C20.1047 0.0887366 20.9705 0.543737 21.5957 1.28165C22.2159 2.01374 22.6029 3.02582 22.6054 4.14582H22.6104V4.15165ZM19.9856 6.40624V4.15165V4.14582H19.9905C19.9905 3.8804 19.8938 3.6354 19.74 3.45457C19.5886 3.27665 19.3778 3.1629 19.152 3.1629V3.16874H19.1495H3.8423H3.83734V3.1629C3.61157 3.1629 3.40318 3.27665 3.24936 3.45749C3.09802 3.6354 3.00127 3.88332 3.00127 4.14874H3.00623V4.15165V22.9904V22.9962H3.00127C3.00127 23.2617 3.09802 23.5067 3.25184 23.6875C3.40318 23.8654 3.61405 23.9792 3.83982 23.9792V23.9733H3.8423H6.86653V10.4779V10.475H6.87149C6.87397 9.35207 7.26347 8.33415 7.88866 7.59915C8.51137 6.86999 9.37225 6.41499 10.3249 6.41207V6.40624H10.3299H19.9856ZM26.4707 31.8483V10.4779V10.4721H26.4756C26.4756 10.2067 26.3789 9.96165 26.2251 9.78082C26.0737 9.6029 25.8629 9.48915 25.6371 9.48915V9.49499H25.6346H10.3274H10.3224V9.48915C10.0967 9.48915 9.88828 9.6029 9.73446 9.78374C9.58313 9.96165 9.48637 10.2096 9.48637 10.475H9.49133V10.4779V31.8483V31.8542H9.48637C9.48637 32.1196 9.58313 32.3646 9.73694 32.5454C9.88828 32.7233 10.0992 32.8371 10.3249 32.8371V32.8312H10.3274H25.6346H25.6396V32.8371C25.8653 32.8371 26.0737 32.7233 26.2276 32.5425C26.3789 32.3646 26.4756 32.1167 26.4756 31.8512H26.4707V31.8483Z" fill="black" fill-opacity="0.38"/>
</svg>
